<svg id="Layer_1" data-name="Layer 1" xmlns="http://www.w3.org/2000/svg" viewBox="0 0 2068.61 230.69"><defs><style>.cls-1{fill:#00cafd;}.cls-2{fill:#ff1b00;}.cls-3{fill:#ff008a;}.cls-4{fill:#ff8e17;}.cls-5{fill:#ffc42c;}.cls-6{fill:#0393ef;}</style></defs><title>EventComboLogo</title><path class="cls-1" d="M259.74,215.66c24.52,0,42-9.14,59.43-26.18l29.51,26.18c-20.78,24.94-49.46,41.14-89.77,41.14-63.59,0-112.63-46.13-112.63-114.29,0-63.17,44.47-114.71,107.23-114.71,69.82,0,105.15,54.86,105.15,118.45,0,4.57-.42,8.73-0.83,13.71H196.57C202.39,195.71,227.33,215.66,259.74,215.66Zm49-88.94C305.46,94.3,286.34,69,253.09,69c-30.75,0-52.37,23.69-56.94,57.77H308.78Z" transform="translate(-146.28 -26.11)"/><path class="cls-1" d="M516.17,32.38H569l-89.77,221.1h-45.3L343.69,32.38h54l59,161.25Z" transform="translate(-146.28 -26.11)"/><path class="cls-1" d="M666.2,215.66c24.52,0,42-9.14,59.43-26.18l29.51,26.18c-20.78,24.94-49.46,41.14-89.77,41.14-63.59,0-112.63-46.13-112.63-114.29,0-63.17,44.47-114.71,107.23-114.71,69.82,0,105.15,54.86,105.15,118.45,0,4.57-.42,8.73-0.83,13.71H603C608.85,195.71,633.78,215.66,666.2,215.66Zm49-88.94C711.92,94.3,692.8,69,659.55,69c-30.75,0-52.37,23.69-56.94,57.77H715.24Z" transform="translate(-146.28 -26.11)"/><path class="cls-2" d="M1405.09,255c-68.22,0-117.18-50.85-117.18-113.7v-0.63c0-62.85,49.59-114.33,117.81-114.33S1522.9,77.15,1522.9,140v0.63C1522.9,203.48,1473.31,255,1405.09,255Zm67-114.33c0-37.9-27.79-69.49-67-69.49s-66.33,31-66.33,68.85v0.63c0,37.9,27.79,69.48,67,69.48s66.33-31,66.33-68.85v-0.63Z" transform="translate(-146.28 -26.11)"/><path class="cls-3" d="M1712.71,251.18V106.84l-62.22,94.44h-1.26l-61.59-93.49V251.18h-47.69V30.09h52.43l58.12,93.49,58.12-93.49H1761V251.18h-48.32Z" transform="translate(-146.28 -26.11)"/><path class="cls-4" d="M1893.06,251.18H1787.88V30.09h102.65c45.17,0,73,22.42,73,57.17v0.63c0,25-13.27,38.85-29.06,47.69,25.58,9.79,41.38,24.64,41.38,54.32v0.63C1975.81,231,1943,251.18,1893.06,251.18Zm22.11-155.71c0-14.53-11.37-22.74-31.9-22.74h-48v46.74h44.85c21.48,0,35.06-6.95,35.06-23.37V95.47Zm12.32,88.44c0-14.84-11.05-24-36-24h-56.22v48.64h57.8c21.48,0,34.43-7.58,34.43-24V183.9Z" transform="translate(-146.28 -26.11)"/><path class="cls-5" d="M2097.08,255c-68.22,0-117.18-50.85-117.18-113.7v-0.63c0-62.85,49.59-114.33,117.81-114.33S2214.89,77.15,2214.89,140v0.63C2214.89,203.48,2165.3,255,2097.08,255Zm67-114.33c0-37.9-27.79-69.49-67-69.49s-66.33,31-66.33,68.85v0.63c0,37.9,27.79,69.48,67,69.48s66.33-31,66.33-68.85v-0.63Z" transform="translate(-146.28 -26.11)"/><rect class="cls-1" x="781.72" y="144.89" width="50" height="81"/><path class="cls-1" d="M978.28,110c-0.69-50-29-82.36-77.9-82.36-34.08,0-54.38,18-68.38,38.82V32H781V252h51V128c0-34.08,20.17-54.61,49.26-54.61,24.59,0,40.27,13.64,45.16,36.64h51.87Z" transform="translate(-146.28 -26.11)"/><path class="cls-6" d="M1144.16,110c9.9-23,31.33-39,58.16-39,22.11,0,39.48,9.56,56.54,25l31-35.65c-20.53-20.21-45.48-34.26-87.17-34.26-56.58,0-98.91,35.89-111.45,83.89h53Z" transform="translate(-146.28 -26.11)"/><path class="cls-6" d="M1260.44,184.22c-17.37,15.79-32.85,25.9-58.11,25.9-27.06,0-48.16-16.11-58-39.12h-53.25c12.45,48.74,55.2,84,109.69,84,42.64,0,67.91-15.16,90.65-39.48Z" transform="translate(-146.28 -26.11)"/><polygon class="cls-1" points="996.72 93.89 913.72 93.89 913.72 5.89 870.72 5.89 870.72 93.89 781.72 93.89 781.72 136.89 870.72 136.89 870.72 226.89 913.72 226.89 913.72 136.89 996.72 136.89 996.72 93.89"/></svg>