<svg id="Layer_1" data-name="Layer 1" xmlns="http://www.w3.org/2000/svg" viewBox="0 0 2068 230"><defs><style>
.cls-1{fill:#00cafd;}.cls-2{fill:#ff1b00;}.cls-3{fill:#ff008a;}.cls-4{fill:#ff8e17;}.cls-5{fill:#ffc42c;}.cls-6{fill:#0393ef;}</style></defs><title>EventComboLogo</title><path class="cls-1" d="M259,215c24,0,42-9,59-26l29,26c-20,24-49,41-89,41-63,0-112-46-112-114,0-63,44-114,107-114,69,0,105,54,105,118,0,4-0,8-0,13H196C202,195,227,215,259,215Zm49-88C305,94,286,69,253,69c-30,0-52,23-56,57H308Z" transform="translate(-146 -26)"/><path class="cls-1" d="M516,32H569l-89,221h-45L343,32h54l59,161Z" transform="translate(-146 -26)"/><path class="cls-1" d="M666,215c24,0,42-9,59-26l29,26c-20,24-49,41-89,41-63,0-112-46-112-114,0-63,44-114,107-114,69,0,105,54,105,118,0,4-0,8-0,13H603C608,195,633,215,666,215Zm49-88C711,94,692,69,659,69c-30,0-52,23-56,57H715Z" transform="translate(-146 -26)"/><path class="cls-2" d="M1405,255c-68,0-117-50-117-113v-0c0-62,49-114,117-114S1522,77,1522,140v0C1522,203,1473,255,1405,255Zm67-114c0-37-27-69-67-69s-66,31-66,68v0c0,37,27,69,67,69s66-31,66-68v-0Z" transform="translate(-146 -26)"/><path class="cls-3" d="M1712,251V106l-62,94h-1l-61-93V251h-47V30h52l58,93,58-93H1761V251h-48Z" transform="translate(-146 -26)"/><path class="cls-4" d="M1893,251H1787V30h102c45,0,73,22,73,57v0c0,25-13,38-29,47,25,9,41,24,41,54v0C1975,231,1943,251,1893,251Zm22-155c0-14-11-22-31-22h-48v46h44c21,0,35-6,35-23V95Zm12,88c0-14-11-24-36-24h-56v48h57c21,0,34-7,34-24V183Z" transform="translate(-146 -26)"/><path class="cls-5" d="M2097,255c-68,0-117-50-117-113v-0c0-62,49-114,117-114S2214,77,2214,140v0C2214,203,2165,255,2097,255Zm67-114c0-37-27-69-67-69s-66,31-66,68v0c0,37,27,69,67,69s66-31,66-68v-0Z" transform="translate(-146 -26)"/><rect class="cls-1" x="781" y="144" width="50" height="81"/><path class="cls-1" d="M978,110c-0-50-29-82-77-82-34,0-54,18-68,38V32H781V252h51V128c0-34,20-54,49-54,24,0,40,13,45,36h51Z" transform="translate(-146 -26)"/><path class="cls-6" d="M1144,110c9-23,31-39,58-39,22,0,39,9,56,25l31-35c-20-20-45-34-87-34-56,0-98,35-111,83h53Z" transform="translate(-146 -26)"/><path class="cls-6" d="M1260,184c-17,15-32,25-58,25-27,0-48-16-58-39h-53c12,48,55,84,109,84,42,0,67-15,90-39Z" transform="translate(-146 -26)"/><polygon class="cls-1" points="996 93 913 93 913 5 870 5 870 93 781 93 781 136 870 136 870 226 913 226 913 136 996 136 996 93"/></svg>
